<mxfile host="app.diagrams.net" modified="2024-02-27T10:43:34.521Z" agent="Mozilla/5.0 (X11; Linux x86_64) AppleWebKit/537.36 (KHTML, like Gecko) Chrome/122.0.0.0 Safari/537.36" etag="aEpt2a9mltiY280u4Ev0" version="23.1.7" type="device">
  <diagram name="Page-1" id="2CUQH800xFhHVJmL9mho">
    <mxGraphModel dx="2074" dy="1180" grid="1" gridSize="20" guides="1" tooltips="1" connect="1" arrows="1" fold="1" page="1" pageScale="1" pageWidth="850" pageHeight="1100" background="none" math="0" shadow="0">
      <root>
        <mxCell id="0" />
        <mxCell id="1" parent="0" />
        <mxCell id="6Ij9C6XUDUhVDzcWqF8C-30" style="edgeStyle=orthogonalEdgeStyle;rounded=0;orthogonalLoop=1;jettySize=auto;html=1;entryX=0;entryY=0.5;entryDx=0;entryDy=0;" parent="1" source="6Ij9C6XUDUhVDzcWqF8C-1" target="6Ij9C6XUDUhVDzcWqF8C-29" edge="1">
          <mxGeometry relative="1" as="geometry">
            <mxPoint x="285" y="200" as="targetPoint" />
            <Array as="points">
              <mxPoint x="285" y="110" />
              <mxPoint x="285" y="200" />
            </Array>
          </mxGeometry>
        </mxCell>
        <mxCell id="6Ij9C6XUDUhVDzcWqF8C-1" value="" style="ellipse;whiteSpace=wrap;html=1;aspect=fixed;fillColor=#5EFFEF;" parent="1" vertex="1">
          <mxGeometry x="175" y="80" width="60" height="60" as="geometry" />
        </mxCell>
        <mxCell id="6Ij9C6XUDUhVDzcWqF8C-31" style="edgeStyle=orthogonalEdgeStyle;rounded=0;orthogonalLoop=1;jettySize=auto;html=1;" parent="1" source="6Ij9C6XUDUhVDzcWqF8C-6" target="6Ij9C6XUDUhVDzcWqF8C-29" edge="1">
          <mxGeometry relative="1" as="geometry" />
        </mxCell>
        <mxCell id="6Ij9C6XUDUhVDzcWqF8C-6" value="" style="ellipse;whiteSpace=wrap;html=1;aspect=fixed;fillColor=#5EFFEF;" parent="1" vertex="1">
          <mxGeometry x="175" y="170" width="60" height="60" as="geometry" />
        </mxCell>
        <mxCell id="6Ij9C6XUDUhVDzcWqF8C-32" style="edgeStyle=orthogonalEdgeStyle;rounded=0;orthogonalLoop=1;jettySize=auto;html=1;entryX=0;entryY=0.5;entryDx=0;entryDy=0;" parent="1" source="6Ij9C6XUDUhVDzcWqF8C-7" target="6Ij9C6XUDUhVDzcWqF8C-29" edge="1">
          <mxGeometry relative="1" as="geometry">
            <mxPoint x="285" y="200" as="targetPoint" />
            <Array as="points">
              <mxPoint x="285" y="340" />
              <mxPoint x="285" y="200" />
            </Array>
          </mxGeometry>
        </mxCell>
        <mxCell id="6Ij9C6XUDUhVDzcWqF8C-7" value="" style="ellipse;whiteSpace=wrap;html=1;aspect=fixed;fillColor=#5EFFEF;" parent="1" vertex="1">
          <mxGeometry x="175" y="310" width="60" height="60" as="geometry" />
        </mxCell>
        <mxCell id="6Ij9C6XUDUhVDzcWqF8C-13" value="Shard 0" style="text;html=1;strokeColor=none;fillColor=none;align=center;verticalAlign=middle;whiteSpace=wrap;rounded=0;" parent="1" vertex="1">
          <mxGeometry x="105" y="95" width="60" height="30" as="geometry" />
        </mxCell>
        <mxCell id="6Ij9C6XUDUhVDzcWqF8C-14" value="Shard 1" style="text;html=1;strokeColor=none;fillColor=none;align=center;verticalAlign=middle;whiteSpace=wrap;rounded=0;" parent="1" vertex="1">
          <mxGeometry x="105" y="185" width="60" height="30" as="geometry" />
        </mxCell>
        <mxCell id="6Ij9C6XUDUhVDzcWqF8C-15" value="Metachain" style="text;html=1;strokeColor=none;fillColor=none;align=center;verticalAlign=middle;whiteSpace=wrap;rounded=0;" parent="1" vertex="1">
          <mxGeometry x="105" y="325" width="60" height="30" as="geometry" />
        </mxCell>
        <mxCell id="6Ij9C6XUDUhVDzcWqF8C-16" value="" style="shape=waypoint;sketch=0;size=6;pointerEvents=1;points=[];fillColor=none;resizable=0;rotatable=0;perimeter=centerPerimeter;snapToPoint=1;" parent="1" vertex="1">
          <mxGeometry x="195" y="240" width="20" height="20" as="geometry" />
        </mxCell>
        <mxCell id="6Ij9C6XUDUhVDzcWqF8C-17" value="" style="shape=waypoint;sketch=0;size=6;pointerEvents=1;points=[];fillColor=none;resizable=0;rotatable=0;perimeter=centerPerimeter;snapToPoint=1;" parent="1" vertex="1">
          <mxGeometry x="195" y="260" width="20" height="20" as="geometry" />
        </mxCell>
        <mxCell id="6Ij9C6XUDUhVDzcWqF8C-18" value="" style="shape=waypoint;sketch=0;size=6;pointerEvents=1;points=[];fillColor=none;resizable=0;rotatable=0;perimeter=centerPerimeter;snapToPoint=1;" parent="1" vertex="1">
          <mxGeometry x="195" y="280" width="20" height="20" as="geometry" />
        </mxCell>
        <mxCell id="6Ij9C6XUDUhVDzcWqF8C-23" value="" style="endArrow=none;dashed=1;html=1;rounded=0;" parent="1" edge="1">
          <mxGeometry width="50" height="50" relative="1" as="geometry">
            <mxPoint x="375" y="370" as="sourcePoint" />
            <mxPoint x="375" y="40" as="targetPoint" />
          </mxGeometry>
        </mxCell>
        <mxCell id="6Ij9C6XUDUhVDzcWqF8C-24" value="Observer Nodes" style="text;html=1;strokeColor=none;fillColor=none;align=center;verticalAlign=middle;whiteSpace=wrap;rounded=0;fontSize=13;" parent="1" vertex="1">
          <mxGeometry x="155" y="30" width="100" height="30" as="geometry" />
        </mxCell>
        <mxCell id="6Ij9C6XUDUhVDzcWqF8C-25" value="Elastic indexer service" style="text;html=1;strokeColor=none;fillColor=none;align=center;verticalAlign=middle;whiteSpace=wrap;rounded=0;fontSize=13;" parent="1" vertex="1">
          <mxGeometry x="415" y="30" width="130" height="30" as="geometry" />
        </mxCell>
        <mxCell id="6Ij9C6XUDUhVDzcWqF8C-27" value="" style="endArrow=none;dashed=1;html=1;rounded=0;" parent="1" edge="1">
          <mxGeometry width="50" height="50" relative="1" as="geometry">
            <mxPoint x="575" y="370" as="sourcePoint" />
            <mxPoint x="575" y="40" as="targetPoint" />
            <Array as="points">
              <mxPoint x="575" y="190" />
            </Array>
          </mxGeometry>
        </mxCell>
        <mxCell id="6Ij9C6XUDUhVDzcWqF8C-36" style="edgeStyle=orthogonalEdgeStyle;rounded=0;orthogonalLoop=1;jettySize=auto;html=1;entryX=0.017;entryY=0.465;entryDx=0;entryDy=0;entryPerimeter=0;" parent="1" source="6Ij9C6XUDUhVDzcWqF8C-29" target="6Ij9C6XUDUhVDzcWqF8C-35" edge="1">
          <mxGeometry relative="1" as="geometry" />
        </mxCell>
        <mxCell id="6Ij9C6XUDUhVDzcWqF8C-29" value="Elasticindexer instance" style="rounded=0;whiteSpace=wrap;html=1;fillColor=#CCE5FF;" parent="1" vertex="1">
          <mxGeometry x="420" y="170" width="120" height="60" as="geometry" />
        </mxCell>
        <mxCell id="6Ij9C6XUDUhVDzcWqF8C-33" value="WebSocket messages" style="text;html=1;strokeColor=none;fillColor=none;align=center;verticalAlign=middle;whiteSpace=wrap;rounded=0;" parent="1" vertex="1">
          <mxGeometry x="305" y="170" width="60" height="30" as="geometry" />
        </mxCell>
        <mxCell id="6Ij9C6XUDUhVDzcWqF8C-34" value="Elasticsearch&lt;br&gt;cluster" style="text;html=1;strokeColor=none;fillColor=none;align=center;verticalAlign=middle;whiteSpace=wrap;rounded=0;fontSize=13;" parent="1" vertex="1">
          <mxGeometry x="620" y="30" width="130" height="30" as="geometry" />
        </mxCell>
        <mxCell id="6Ij9C6XUDUhVDzcWqF8C-37" style="edgeStyle=orthogonalEdgeStyle;rounded=0;orthogonalLoop=1;jettySize=auto;html=1;" parent="1" source="6Ij9C6XUDUhVDzcWqF8C-35" target="6Ij9C6XUDUhVDzcWqF8C-29" edge="1">
          <mxGeometry relative="1" as="geometry">
            <Array as="points">
              <mxPoint x="615" y="200" />
              <mxPoint x="615" y="200" />
            </Array>
          </mxGeometry>
        </mxCell>
        <mxCell id="6Ij9C6XUDUhVDzcWqF8C-35" value="Elasticsearch&amp;nbsp;&lt;br&gt;cluster" style="rounded=0;whiteSpace=wrap;html=1;fillColor=#D5E8D4;" parent="1" vertex="1">
          <mxGeometry x="625" y="120" width="120" height="170" as="geometry" />
        </mxCell>
      </root>
    </mxGraphModel>
  </diagram>
</mxfile>
